<mxfile host="Electron" agent="Mozilla/5.0 (X11; Linux x86_64) AppleWebKit/537.36 (KHTML, like Gecko) draw.io/27.0.9 Chrome/134.0.6998.205 Electron/35.4.0 Safari/537.36" version="27.0.9">
  <diagram name="Page-1" id="jx8172wl0PXRr6kTKVzI">
    <mxGraphModel dx="1138" dy="807" grid="1" gridSize="10" guides="1" tooltips="1" connect="1" arrows="1" fold="1" page="1" pageScale="1" pageWidth="850" pageHeight="1100" math="0" shadow="0">
      <root>
        <mxCell id="0" />
        <mxCell id="1" parent="0" />
        <mxCell id="5gemPtfy31_0dLnFuJml-6" style="edgeStyle=orthogonalEdgeStyle;rounded=0;orthogonalLoop=1;jettySize=auto;html=1;exitX=0.5;exitY=1;exitDx=0;exitDy=0;entryX=0.5;entryY=0;entryDx=0;entryDy=0;" parent="1" source="5gemPtfy31_0dLnFuJml-1" target="5gemPtfy31_0dLnFuJml-4" edge="1">
          <mxGeometry relative="1" as="geometry" />
        </mxCell>
        <mxCell id="5gemPtfy31_0dLnFuJml-1" value="Start driving&lt;br&gt;straight forward" style="rounded=0;whiteSpace=wrap;html=1;fillColor=#dae8fc;strokeColor=#6c8ebf;" parent="1" vertex="1">
          <mxGeometry x="80" y="380" width="120" height="60" as="geometry" />
        </mxCell>
        <mxCell id="5gemPtfy31_0dLnFuJml-10" style="edgeStyle=orthogonalEdgeStyle;rounded=0;orthogonalLoop=1;jettySize=auto;html=1;entryX=0.5;entryY=0;entryDx=0;entryDy=0;" parent="1" target="5gemPtfy31_0dLnFuJml-1" edge="1">
          <mxGeometry relative="1" as="geometry">
            <mxPoint x="130" y="370" as="targetPoint" />
            <mxPoint x="70" y="830" as="sourcePoint" />
            <Array as="points">
              <mxPoint x="290" y="830" />
              <mxPoint x="290" y="340" />
              <mxPoint x="140" y="340" />
            </Array>
          </mxGeometry>
        </mxCell>
        <mxCell id="5gemPtfy31_0dLnFuJml-9" style="edgeStyle=orthogonalEdgeStyle;rounded=0;orthogonalLoop=1;jettySize=auto;html=1;entryX=0.5;entryY=0;entryDx=0;entryDy=0;" parent="1" source="5gemPtfy31_0dLnFuJml-4" edge="1" target="L0A4kGf9rXhLMhJBaabe-1">
          <mxGeometry relative="1" as="geometry">
            <mxPoint x="140" y="620" as="targetPoint" />
          </mxGeometry>
        </mxCell>
        <mxCell id="5gemPtfy31_0dLnFuJml-4" value="" style="rounded=0;whiteSpace=wrap;html=1;fillColor=#ffe6cc;strokeColor=#d79b00;" parent="1" vertex="1">
          <mxGeometry x="80" y="470" width="120" height="110" as="geometry" />
        </mxCell>
        <mxCell id="5gemPtfy31_0dLnFuJml-11" value="Repeat&lt;br&gt;forever" style="text;html=1;align=center;verticalAlign=middle;resizable=0;points=[];autosize=1;strokeColor=none;fillColor=none;" parent="1" vertex="1">
          <mxGeometry x="310" y="550" width="60" height="40" as="geometry" />
        </mxCell>
        <mxCell id="lsHbOsiuV9fE1T_8LVNS-4" style="edgeStyle=orthogonalEdgeStyle;rounded=0;orthogonalLoop=1;jettySize=auto;html=1;exitX=0.25;exitY=1;exitDx=0;exitDy=0;entryX=0.75;entryY=0;entryDx=0;entryDy=0;" edge="1" parent="1" source="L0A4kGf9rXhLMhJBaabe-1" target="L0A4kGf9rXhLMhJBaabe-2">
          <mxGeometry relative="1" as="geometry">
            <Array as="points">
              <mxPoint x="97" y="650" />
            </Array>
          </mxGeometry>
        </mxCell>
        <mxCell id="L0A4kGf9rXhLMhJBaabe-1" value="Right button is pressed" style="rounded=1;whiteSpace=wrap;html=1;arcSize=30;absoluteArcSize=1;fillColor=#d5e8d4;strokeColor=#82b366;" parent="1" vertex="1">
          <mxGeometry x="70" y="610" width="140" height="40" as="geometry" />
        </mxCell>
        <mxCell id="L0A4kGf9rXhLMhJBaabe-17" style="edgeStyle=orthogonalEdgeStyle;rounded=0;orthogonalLoop=1;jettySize=auto;html=1;exitX=0.75;exitY=1;exitDx=0;exitDy=0;entryX=0.75;entryY=0;entryDx=0;entryDy=0;" parent="1" source="L0A4kGf9rXhLMhJBaabe-2" target="L0A4kGf9rXhLMhJBaabe-15" edge="1">
          <mxGeometry relative="1" as="geometry" />
        </mxCell>
        <mxCell id="L0A4kGf9rXhLMhJBaabe-2" value="Reverse" style="rounded=0;whiteSpace=wrap;html=1;fillColor=#dae8fc;strokeColor=#6c8ebf;" parent="1" vertex="1">
          <mxGeometry x="30" y="700" width="90" height="40" as="geometry" />
        </mxCell>
        <mxCell id="L0A4kGf9rXhLMhJBaabe-16" style="edgeStyle=orthogonalEdgeStyle;rounded=0;orthogonalLoop=1;jettySize=auto;html=1;exitX=0.25;exitY=1;exitDx=0;exitDy=0;entryX=0.25;entryY=0;entryDx=0;entryDy=0;" parent="1" source="L0A4kGf9rXhLMhJBaabe-5" target="L0A4kGf9rXhLMhJBaabe-14" edge="1">
          <mxGeometry relative="1" as="geometry" />
        </mxCell>
        <mxCell id="L0A4kGf9rXhLMhJBaabe-5" value="Reverse" style="rounded=0;whiteSpace=wrap;html=1;fillColor=#dae8fc;strokeColor=#6c8ebf;" parent="1" vertex="1">
          <mxGeometry x="150" y="700" width="90" height="40" as="geometry" />
        </mxCell>
        <mxCell id="L0A4kGf9rXhLMhJBaabe-19" style="edgeStyle=orthogonalEdgeStyle;rounded=0;orthogonalLoop=1;jettySize=auto;html=1;exitX=0.25;exitY=1;exitDx=0;exitDy=0;" parent="1" source="L0A4kGf9rXhLMhJBaabe-14" edge="1">
          <mxGeometry relative="1" as="geometry">
            <mxPoint x="172.71428571428567" y="830" as="targetPoint" />
          </mxGeometry>
        </mxCell>
        <mxCell id="L0A4kGf9rXhLMhJBaabe-14" value="Turn left" style="rounded=0;whiteSpace=wrap;html=1;fillColor=#dae8fc;strokeColor=#6c8ebf;" parent="1" vertex="1">
          <mxGeometry x="150" y="760" width="90" height="40" as="geometry" />
        </mxCell>
        <mxCell id="L0A4kGf9rXhLMhJBaabe-18" style="edgeStyle=orthogonalEdgeStyle;rounded=0;orthogonalLoop=1;jettySize=auto;html=1;exitX=0.75;exitY=1;exitDx=0;exitDy=0;" parent="1" source="L0A4kGf9rXhLMhJBaabe-15" edge="1">
          <mxGeometry relative="1" as="geometry">
            <mxPoint x="97.28571428571433" y="830" as="targetPoint" />
          </mxGeometry>
        </mxCell>
        <mxCell id="L0A4kGf9rXhLMhJBaabe-15" value="Turn right" style="rounded=0;whiteSpace=wrap;html=1;fillColor=#dae8fc;strokeColor=#6c8ebf;" parent="1" vertex="1">
          <mxGeometry x="30" y="760" width="90" height="40" as="geometry" />
        </mxCell>
        <mxCell id="L0A4kGf9rXhLMhJBaabe-20" value="Left button or&lt;br&gt;&amp;nbsp;right button&lt;br&gt;is pressed" style="rounded=1;whiteSpace=wrap;html=1;arcSize=30;absoluteArcSize=1;fillColor=#d5e8d4;strokeColor=#82b366;" parent="1" vertex="1">
          <mxGeometry x="87.5" y="506" width="105" height="60" as="geometry" />
        </mxCell>
        <mxCell id="L0A4kGf9rXhLMhJBaabe-21" value="Wait until:" style="text;html=1;align=center;verticalAlign=middle;resizable=0;points=[];autosize=1;strokeColor=none;fillColor=none;" parent="1" vertex="1">
          <mxGeometry x="100" y="477" width="80" height="30" as="geometry" />
        </mxCell>
        <mxCell id="lsHbOsiuV9fE1T_8LVNS-1" value="True" style="text;html=1;align=center;verticalAlign=middle;resizable=0;points=[];autosize=1;strokeColor=none;fillColor=none;" vertex="1" parent="1">
          <mxGeometry x="57" y="656" width="50" height="30" as="geometry" />
        </mxCell>
        <mxCell id="lsHbOsiuV9fE1T_8LVNS-3" style="edgeStyle=orthogonalEdgeStyle;rounded=0;orthogonalLoop=1;jettySize=auto;html=1;exitX=0.75;exitY=1;exitDx=0;exitDy=0;entryX=0.277;entryY=0;entryDx=0;entryDy=0;entryPerimeter=0;strokeColor=default;" edge="1" parent="1" source="L0A4kGf9rXhLMhJBaabe-1" target="L0A4kGf9rXhLMhJBaabe-5">
          <mxGeometry relative="1" as="geometry" />
        </mxCell>
        <mxCell id="lsHbOsiuV9fE1T_8LVNS-5" value="False" style="text;html=1;align=center;verticalAlign=middle;resizable=0;points=[];autosize=1;strokeColor=none;fillColor=none;" vertex="1" parent="1">
          <mxGeometry x="167" y="656" width="50" height="30" as="geometry" />
        </mxCell>
      </root>
    </mxGraphModel>
  </diagram>
</mxfile>
